# xmcd CD database file
#
# Track frame offsets:
#	150
#	16159
#	34768
#	49490
#	61111
#	75408
#	91511
#	109066
#	125929
#	143513
#	158086
#	174005
#
# Disc length: 2563 seconds
#
# Revision: 1
# Processed by: cddbd v1.4PL0 Copyright (c) Steve Scherf et al.
# Submitted via: CDex 1.50beta10
#
DISCID=870a010c
DTITLE=Die Flippers - Wünsche fliegen übers Meer
DYEAR=1900
DGENRE=Deutsch
TTITLE0=Mein Herz ist taetowiert..mit
TTITLE1=Donna Mexicana
TTITLE2=Liebst Du mich noch so wie frueher
TTITLE3=Mit der Raupe fahr'n
TTITLE4=Zwei Schritte nach vorn
TTITLE5=Ich hab n'en Bungalow in Santa Nirgendwo
TTITLE6=Jackie
TTITLE7=Ein kleines Hotel bei Cuxhafen
TTITLE8=Jenny und Tom
TTITLE9=Die Zeit ist reif
TTITLE10=Wuensche fliegen ueber's Meer
TTITLE11=Du, bin ich zu weit gegangen
EXTD=
EXTT0=
EXTT1=
EXTT2=
EXTT3=
EXTT4=
EXTT5=
EXTT6=
EXTT7=
EXTT8=
EXTT9=
EXTT10=
EXTT11=
PLAYORDER=
